<?xml version="1.0" standalone="no"?>
<!DOCTYPE svg PUBLIC "-//W3C//DTD SVG 20010904//EN"
 "http://www.w3.org/TR/2001/REC-SVG-20010904/DTD/svg10.dtd">
<svg version="1.0" xmlns="http://www.w3.org/2000/svg"
 width="2000.000000pt" height="2000.000000pt" viewBox="0 0 2000.000000 2000.000000"
 preserveAspectRatio="xMidYMid meet">

<g transform="translate(0.000000,2000.000000) scale(0.100000,-0.100000)"
fill="#b5431f" stroke="none">
<path d="M8099 14330 c-298 -27 -549 -134 -781 -334 -150 -129 -269 -287 -368
-491 -105 -216 -164 -405 -321 -1030 -150 -595 -318 -1205 -338 -1227 -3 -4
-76 4 -161 17 -1204 188 -2052 217 -2774 95 -607 -102 -1143 -322 -1571 -645
-660 -499 -1134 -1286 -1280 -2125 -32 -181 -45 -346 -45 -560 0 -1049 435
-1732 1334 -2090 341 -135 701 -215 1196 -266 212 -21 898 -30 1185 -15 1326
70 2714 319 5295 951 1408 345 1687 410 2140 500 477 96 828 139 1020 125 230
-16 452 -72 715 -178 88 -36 255 -103 370 -150 255 -103 450 -171 695 -242
774 -224 1796 -392 3135 -515 720 -66 1013 -27 1302 172 451 311 741 1074 693
1825 -32 508 -186 947 -457 1311 -71 95 -244 274 -340 354 -328 269 -754 440
-1253 503 -564 72 -1475 -20 -2420 -244 l-115 -27 0 545 c-1 417 -5 604 -18
791 -42 591 -125 1236 -192 1501 -96 381 -262 588 -615 764 -275 138 -889 336
-1346 434 -561 120 -987 165 -1564 165 -481 0 -744 -22 -1445 -120 -181 -25
-299 -36 -390 -37 l-130 -1 -177 66 c-305 114 -497 161 -736 178 -75 5 -141 9
-147 9 -5 -1 -49 -5 -96 -9z m447 -89 c62 -12 165 -36 230 -55 115 -33 416
-138 410 -143 -4 -5 -671 -141 -816 -167 -423 -75 -594 -52 -643 89 -17 50
-41 66 -63 43 -27 -27 5 -107 66 -161 65 -59 131 -77 279 -77 169 0 300 22
996 165 204 41 429 82 502 90 73 8 246 31 385 50 626 86 805 99 1323 100 424
0 509 -4 845 -41 138 -16 149 -18 219 -58 87 -48 217 -166 271 -245 150 -222
197 -493 155 -899 -122 -1174 -722 -2540 -1679 -3822 -152 -204 -326 -418
-393 -483 l-60 -58 -354 -6 c-556 -9 -1483 15 -2059 52 -1278 83 -2085 271
-2364 551 -116 115 -129 223 -50 412 223 539 368 922 509 1347 162 484 237
745 425 1485 186 731 251 936 365 1145 212 389 575 645 999 705 103 15 378 4
502 -19z m-3611 -2896 c105 -8 294 -27 420 -41 226 -25 904 -120 911 -127 2
-2 -13 -53 -33 -113 l-36 -110 -146 33 c-763 171 -1535 187 -2241 47 -616
-122 -1218 -377 -1688 -713 -715 -512 -1173 -1201 -1278 -1926 -25 -174 -23
-442 4 -605 78 -463 294 -866 653 -1216 458 -446 1069 -664 1858 -664 108 0
250 5 316 10 66 5 149 12 185 15 57 5 26 -8 -262 -104 l-327 -110 -138 10
c-213 15 -521 56 -709 94 -772 157 -1311 487 -1608 982 -333 556 -387 1432
-136 2218 119 371 334 773 581 1086 95 122 389 418 504 509 546 432 1245 675
2130 740 175 13 817 4 1040 -15z m292 -300 c232 -19 479 -54 700 -100 202 -42
243 -53 243 -66 0 -35 -255 -713 -416 -1107 l-79 -193 -50 -29 c-247 -142
-342 -474 -224 -781 189 -494 1016 -807 2404 -911 218 -17 1150 -17 1325 0 68
6 125 10 127 9 6 -7 -1343 -592 -1747 -757 -1126 -461 -1634 -642 -2200 -785
-184 -46 -450 -116 -590 -155 -438 -122 -801 -176 -1255 -187 -421 -10 -761
33 -1077 138 -329 109 -592 267 -837 504 -851 823 -876 2001 -64 3010 103 129
300 329 428 436 697 583 1554 912 2555 982 142 10 590 5 757 -8z"/>
<path d="M6560 11063 c-11 -14 -19 -31 -17 -36 5 -17 33 -31 50 -24 23 9 50
54 43 72 -9 24 -52 18 -76 -12z"/>
<path d="M6534 10682 c-16 -10 -44 -68 -44 -90 0 -33 32 -37 57 -7 29 33 39
71 23 90 -14 17 -20 18 -36 7z"/>
<path d="M6404 10116 c-13 -35 3 -47 58 -44 49 3 53 5 53 28 0 23 -4 25 -53
28 -40 2 -54 -1 -58 -12z"/>
<path d="M6260 9915 c-13 -16 -10 -23 37 -82 32 -38 103 -98 164 -137 21 -13
28 -14 43 -3 24 17 14 50 -19 65 -14 6 -63 48 -109 92 -46 44 -88 80 -93 80
-6 0 -16 -7 -23 -15z"/>
<path d="M5956 9493 c-21 -53 232 -218 407 -265 42 -11 49 -10 64 5 28 27 6
47 -77 71 -98 28 -201 84 -284 152 -67 56 -99 66 -110 37z"/>
<path d="M2811 10090 c-174 -96 -309 -199 -452 -347 -203 -210 -335 -428 -428
-708 -213 -640 -75 -1327 368 -1832 90 -102 120 -127 145 -117 26 10 19 48
-15 80 -54 51 -165 186 -224 274 -72 106 -174 314 -214 440 -143 443 -110 923
94 1348 164 342 428 619 762 800 74 40 88 51 88 72 0 39 -39 36 -124 -10z"/>
<path d="M2719 9521 c-28 -10 -169 -131 -169 -144 0 -16 20 -37 36 -37 12 0
167 121 178 139 8 12 -3 38 -17 44 -7 2 -19 1 -28 -2z"/>
<path d="M2435 8788 c-40 -98 -50 -161 -50 -338 0 -211 16 -285 100 -456 61
-124 86 -154 113 -138 28 18 25 37 -16 105 -44 72 -81 162 -109 259 -14 52
-18 100 -17 235 0 154 3 178 26 255 28 89 25 110 -14 110 -12 0 -24 -12 -33
-32z"/>
<path d="M3026 8751 c-50 -55 -79 -222 -56 -322 24 -105 83 -204 117 -197 35
7 36 32 5 81 -68 108 -79 252 -27 364 30 66 29 58 9 77 -20 21 -27 20 -48 -3z"/>
<path d="M6575 7529 c-16 -6 -82 -13 -145 -17 -99 -6 -115 -9 -118 -25 -7 -36
16 -47 100 -47 83 0 224 24 246 43 7 5 12 20 10 31 -3 24 -44 31 -93 15z"/>
<path d="M5791 7201 c-7 -13 -7 -23 2 -34 15 -20 169 -62 302 -82 188 -28 575
-12 620 25 19 15 19 34 1 49 -10 8 -39 7 -112 -4 -207 -31 -485 -15 -692 40
-112 30 -109 30 -121 6z"/>
</g>
</svg>
